<svg width="50" height="50" viewBox="0 0 50 50" fill="none" xmlns="http://www.w3.org/2000/svg">
<rect x="1" y="1" width="48" height="48" rx="9" fill="white" stroke="#D9D9D9" stroke-width="2"/>
<path d="M11.0001 31.4355C11.0001 35.6132 14.3868 38.9999 18.5645 38.9999C22.7422 38.9999 26.1289 35.6132 26.1289 31.4355C26.1289 27.2578 22.7422 23.8711 18.5645 23.8711C14.3868 23.8711 11.0001 27.2578 11.0001 31.4355Z" fill="#97CF26"/>
<path d="M15.0428 17.2164C15.0428 19.161 16.6193 20.7374 18.5639 20.7374C20.5085 20.7374 22.085 19.161 22.085 17.2164C22.085 15.2717 20.5085 13.6953 18.5639 13.6953C16.6193 13.6953 15.0428 15.2717 15.0428 17.2164Z" fill="#A169F7"/>
<path d="M27.9147 31.4357C27.9147 34.1247 30.0945 36.3046 32.7835 36.3046C35.4725 36.3046 37.6523 34.1247 37.6523 31.4357C37.6523 28.7467 35.4725 26.5669 32.7835 26.5669C30.0945 26.5669 27.9147 28.7467 27.9147 31.4357Z" fill="#FF6163"/>
<path d="M26.5668 17.2166C26.5668 20.6499 29.3501 23.4332 32.7834 23.4332C36.2167 23.4332 39 20.6499 39 17.2166C39 13.7833 36.2167 11 32.7834 11C29.3501 11 26.5668 13.7833 26.5668 17.2166Z" fill="#00AAFF"/>
</svg>
