<svg width="107" height="36" viewBox="0 0 107 36" fill="none" xmlns="http://www.w3.org/2000/svg">
<path d="M24.8058 31.1782C28.9259 31.1782 32.2659 27.9475 32.2659 23.9622C32.2659 19.9768 28.9259 16.7461 24.8058 16.7461C20.6857 16.7461 17.3457 19.9768 17.3457 23.9622C17.3457 27.9475 20.6857 31.1782 24.8058 31.1782Z" fill="#97CF26"/>
<path d="M10.7831 27.3214C12.7009 27.3214 14.2556 25.8175 14.2556 23.9624C14.2556 22.1074 12.7009 20.6035 10.7831 20.6035C8.86525 20.6035 7.31055 22.1074 7.31055 23.9624C7.31055 25.8175 8.86525 27.3214 10.7831 27.3214Z" fill="#A169F7"/>
<path d="M24.8056 15.0432C27.4575 15.0432 29.6073 12.9637 29.6073 10.3985C29.6073 7.83338 27.4575 5.75391 24.8056 5.75391C22.1537 5.75391 20.0039 7.83338 20.0039 10.3985C20.0039 12.9637 22.1537 15.0432 24.8056 15.0432Z" fill="#FF6163"/>
<path d="M10.7832 16.3285C14.1692 16.3285 16.9141 13.6734 16.9141 10.3981C16.9141 7.12288 14.1692 4.46777 10.7832 4.46777C7.39724 4.46777 4.65234 7.12288 4.65234 10.3981C4.65234 13.6734 7.39724 16.3285 10.7832 16.3285Z" fill="#00AAFF"/>
<path d="M51.6605 27.2823H55.5331L48.3611 8.39258H45.5522L38.3789 27.2829H42.2518L43.6216 23.6771H50.2908L51.6605 27.2829L44.7002 20.8344L46.9565 14.8944L49.2115 20.8344H44.7002L51.6605 27.2823ZM65.1332 14.3859L61.5693 23.7697L58.0071 14.3859H54.3684L59.2672 27.2823H63.8722L68.7702 14.3859H65.1326M70.2931 14.3859H73.9318V27.2823H70.2931V14.3859Z" fill="#1E1E1E"/>
<path d="M72.1259 12.9218C73.4197 12.9218 74.4686 11.9072 74.4686 10.6557C74.4686 9.4042 73.4197 8.38965 72.1259 8.38965C70.8321 8.38965 69.7832 9.4042 69.7832 10.6557C69.7832 11.9072 70.8321 12.9218 72.1259 12.9218Z" fill="#1E1E1E"/>
<path d="M86.779 17.2278V14.3857H82.4203V10.8281H78.784V14.3857H75.9062V17.2278H78.784V22.7763C78.784 25.6383 80.2633 27.5485 84.0409 27.5485C85.4997 27.5485 86.779 27.0304 86.779 27.0304L86.3371 24.2458C86.3371 24.2458 85.621 24.4528 84.7404 24.4528C83.6611 24.4528 82.4203 24.0028 82.4203 22.5596V17.2274H86.779M95.1231 24.3342C93.0944 24.3342 91.4505 22.7785 91.4505 20.8596C91.4505 18.9423 93.0944 17.3862 95.1224 17.3862C97.1517 17.3862 98.7949 18.9426 98.7949 20.8599C98.7949 22.7788 97.1517 24.3346 95.1231 24.3346M95.1231 14.0566C91.1793 14.0566 87.981 17.0828 87.981 20.813C87.981 24.5448 91.1793 27.5694 95.1227 27.5694C99.0644 27.5694 102.263 24.5448 102.263 20.813C102.263 17.0828 99.0644 14.0566 95.1224 14.0566" fill="#1E1E1E"/>
</svg>
