<svg width="70" height="70" viewBox="0 0 70 70" fill="none" xmlns="http://www.w3.org/2000/svg">
<rect width="70" height="70" rx="10" fill="#FAC300"/>
<path d="M24.5 50C23.675 50 22.9685 49.7065 22.3805 49.1195C21.7935 48.5315 21.5 47.825 21.5 47V26C21.5 25.175 21.7935 24.469 22.3805 23.882C22.9685 23.294 23.675 23 24.5 23H26V20H29V23H41V20H44V23H45.5C46.325 23 47.0315 23.294 47.6195 23.882C48.2065 24.469 48.5 25.175 48.5 26V47C48.5 47.825 48.2065 48.5315 47.6195 49.1195C47.0315 49.7065 46.325 50 45.5 50H24.5ZM24.5 47H45.5V32H24.5V47ZM24.5 29H45.5V26H24.5V29ZM24.5 29V26V29Z" fill="white"/>
</svg>
