<svg width="70" height="70" viewBox="0 0 70 70" fill="none" xmlns="http://www.w3.org/2000/svg">
<rect width="70" height="70" rx="10" fill="#FAC300"/>
<path d="M33.5435 20.8099C33.9891 20.5625 34.4903 20.4326 35 20.4326C35.5097 20.4326 36.0109 20.5625 36.4565 20.8099L47.729 27.0709C47.9627 27.2009 48.1574 27.3909 48.293 27.6214C48.4285 27.8519 48.5 28.1145 48.5 28.3819V40.7344C48.4999 41.2694 48.3567 41.7946 48.0853 42.2556C47.8139 42.7166 47.4242 43.0967 46.9565 43.3564L36.4565 49.1914C36.0109 49.4389 35.5097 49.5687 35 49.5687C34.4903 49.5687 33.9891 49.4389 33.5435 49.1914L23.0435 43.3564C22.576 43.0968 22.1864 42.717 21.9151 42.2562C21.6437 41.7955 21.5004 41.2706 21.5 40.7359V28.3819C21.5 28.1145 21.5715 27.8519 21.707 27.6214C21.8426 27.3909 22.0373 27.2009 22.271 27.0709L33.545 20.8099H33.5435Z" stroke="white" stroke-width="2.5" stroke-linecap="round" stroke-linejoin="round"/>
<path d="M21.5 27.5L35 35M35 35L48.5 27.5M35 35V50" stroke="white" stroke-width="2.5" stroke-linejoin="round"/>
<path d="M28.25 31.25L41.75 23.75M26 35.492L30.5 38" stroke="white" stroke-width="2.5" stroke-linecap="round" stroke-linejoin="round"/>
</svg>
