<svg width="70" height="70" viewBox="0 0 70 70" fill="none" xmlns="http://www.w3.org/2000/svg">
<rect width="70" height="70" rx="10" fill="#FAC300"/>
<path d="M27.5 47H42.5V46.625C41.45 45.75 40.2875 45.094 39.0125 44.657C37.7375 44.219 36.4 44 35 44C33.6 44 32.2625 44.219 30.9875 44.657C29.7125 45.094 28.55 45.75 27.5 46.625V47ZM24.5 45.275C25.85 43.95 27.419 42.906 29.207 42.143C30.994 41.381 32.925 41 35 41C37.075 41 39.0065 41.381 40.7945 42.143C42.5815 42.906 44.15 43.95 45.5 45.275V26H24.5V45.275ZM35 38C33.55 38 32.3125 37.4875 31.2875 36.4625C30.2625 35.4375 29.75 34.2 29.75 32.75C29.75 31.3 30.2625 30.0625 31.2875 29.0375C32.3125 28.0125 33.55 27.5 35 27.5C36.45 27.5 37.6875 28.0125 38.7125 29.0375C39.7375 30.0625 40.25 31.3 40.25 32.75C40.25 34.2 39.7375 35.4375 38.7125 36.4625C37.6875 37.4875 36.45 38 35 38ZM35 35C35.625 35 36.156 34.781 36.593 34.343C37.031 33.906 37.25 33.375 37.25 32.75C37.25 32.125 37.031 31.594 36.593 31.157C36.156 30.719 35.625 30.5 35 30.5C34.375 30.5 33.844 30.719 33.407 31.157C32.969 31.594 32.75 32.125 32.75 32.75C32.75 33.375 32.969 33.906 33.407 34.343C33.844 34.781 34.375 35 35 35ZM24.5 50C23.675 50 22.9685 49.7065 22.3805 49.1195C21.7935 48.5315 21.5 47.825 21.5 47V26C21.5 25.175 21.7935 24.469 22.3805 23.882C22.9685 23.294 23.675 23 24.5 23H26V21.5C26 21.075 26.1435 20.7185 26.4305 20.4305C26.7185 20.1435 27.075 20 27.5 20C27.925 20 28.2815 20.1435 28.5695 20.4305C28.8565 20.7185 29 21.075 29 21.5V23H41V21.5C41 21.075 41.144 20.7185 41.432 20.4305C41.719 20.1435 42.075 20 42.5 20C42.925 20 43.281 20.1435 43.568 20.4305C43.856 20.7185 44 21.075 44 21.5V23H45.5C46.325 23 47.0315 23.294 47.6195 23.882C48.2065 24.469 48.5 25.175 48.5 26V47C48.5 47.825 48.2065 48.5315 47.6195 49.1195C47.0315 49.7065 46.325 50 45.5 50H24.5ZM27.5 47H42.5H27.5Z" fill="white"/>
</svg>
