<svg width="30" height="30" viewBox="0 0 30 30" fill="none" xmlns="http://www.w3.org/2000/svg">
<circle cx="15" cy="15" r="15" fill="#FAC300"/>
<g clip-path="url(#clip0_985_839)">
<path d="M15 22C15 22 20.25 17.0248 20.25 13.25C20.25 11.8576 19.6969 10.5223 18.7123 9.53769C17.7277 8.55312 16.3924 8 15 8C13.6076 8 12.2723 8.55312 11.2877 9.53769C10.3031 10.5223 9.75 11.8576 9.75 13.25C9.75 17.0248 15 22 15 22ZM15 15.875C14.3038 15.875 13.6361 15.5984 13.1438 15.1062C12.6516 14.6139 12.375 13.9462 12.375 13.25C12.375 12.5538 12.6516 11.8861 13.1438 11.3938C13.6361 10.9016 14.3038 10.625 15 10.625C15.6962 10.625 16.3639 10.9016 16.8562 11.3938C17.3484 11.8861 17.625 12.5538 17.625 13.25C17.625 13.9462 17.3484 14.6139 16.8562 15.1062C16.3639 15.5984 15.6962 15.875 15 15.875Z" fill="#1E1E1E"/>
</g>
<defs>
<clipPath id="clip0_985_839">
<rect width="14" height="14" fill="white" transform="translate(8 8)"/>
</clipPath>
</defs>
</svg>
