<svg width="70" height="70" viewBox="0 0 70 70" fill="none" xmlns="http://www.w3.org/2000/svg">
<rect width="70" height="70" rx="10" fill="#FAC300"/>
<path d="M23 25.667H28.3333M47 25.667H33.6667M23 35.0003H39M47 35.0003H44.3333M23 44.3337H25.6667M47 44.3337H31" stroke="#1E1E1E" stroke-width="2.5" stroke-linecap="round"/>
<path d="M30.9997 28.3333C32.4724 28.3333 33.6663 27.1394 33.6663 25.6667C33.6663 24.1939 32.4724 23 30.9997 23C29.5269 23 28.333 24.1939 28.333 25.6667C28.333 27.1394 29.5269 28.3333 30.9997 28.3333Z" stroke="#1E1E1E" stroke-width="2.5" stroke-linecap="round"/>
<path d="M41.6667 37.6663C43.1394 37.6663 44.3333 36.4724 44.3333 34.9997C44.3333 33.5269 43.1394 32.333 41.6667 32.333C40.1939 32.333 39 33.5269 39 34.9997C39 36.4724 40.1939 37.6663 41.6667 37.6663Z" stroke="#1E1E1E" stroke-width="2.5" stroke-linecap="round"/>
<path d="M28.3337 47.0003C29.8064 47.0003 31.0003 45.8064 31.0003 44.3337C31.0003 42.8609 29.8064 41.667 28.3337 41.667C26.8609 41.667 25.667 42.8609 25.667 44.3337C25.667 45.8064 26.8609 47.0003 28.3337 47.0003Z" stroke="#1E1E1E" stroke-width="2.5" stroke-linecap="round"/>
</svg>
