<svg width="161" height="97" viewBox="0 0 161 97" fill="none" xmlns="http://www.w3.org/2000/svg">
<path fill-rule="evenodd" clip-rule="evenodd" d="M160.982 14.1143C160.982 6.31644 154.637 0 146.803 0C116.452 0 45.5279 0 15.1763 0C7.34311 0 0.998047 6.31644 0.998047 14.1143C0.998047 26.4053 0.998047 43.8569 0.998047 54.4385C0.998047 60.0224 4.31776 65.1016 9.45268 67.3481C25.4788 74.3971 59.886 89.5207 73.3774 95.4465C76.9424 97.0093 80.998 97.0581 84.5958 95.5441C98.6595 89.6672 135.422 74.3157 152.298 67.2667C157.564 65.069 160.998 59.941 160.998 54.2432V14.1143H160.982Z" fill="#FAC300"/>
<path d="M79.1824 93C77.2588 93 75.3352 92.6245 73.5584 91.857C63.5493 87.6118 41.4934 78.2558 24.9148 71.2348L12.3138 65.8955C7.26029 63.7565 4 58.9561 4 53.6495V16.389C4 9.00871 10.2598 3 17.9378 3H144.062C151.74 3 158 9.00871 158 16.389V53.4699C158 58.8745 154.642 63.7239 149.442 65.8302L84.5619 91.9713C82.8502 92.6571 81.0244 93 79.1824 93ZM17.9378 3.68577C10.6347 3.68577 4.70097 9.38425 4.70097 16.389V53.6495C4.70097 58.6785 7.79824 63.234 12.5909 65.2587L25.1919 70.598C41.7542 77.619 63.8101 86.975 73.8355 91.2202C77.161 92.6245 80.9755 92.6571 84.3173 91.3182L149.197 65.1771C154.12 63.185 157.315 58.5969 157.315 53.4699V16.389C157.315 9.38425 151.382 3.68577 144.079 3.68577H17.9378Z" fill="black"/>
<path d="M25.2174 24.7275H29.4983V28.9891H25.2174C22.2843 28.9891 19.7474 30.015 17.607 32.1458C15.5458 34.2766 14.5153 36.723 14.5153 39.7219C14.5153 42.6419 15.5458 45.1672 17.607 47.298C19.7474 49.4288 22.205 50.4547 25.2174 50.4547V37.6701H29.4983V54.7952H25.2174C21.0951 54.7952 17.5277 53.2958 14.5945 50.3758C11.6613 47.4559 10.2344 43.9045 10.2344 39.8008C10.2344 35.6971 11.6613 32.1459 14.5945 29.2259C17.5277 26.227 21.0951 24.7275 25.2174 24.7275Z" fill="black"/>
<path d="M40.8761 27.5013C38.9905 27.5013 37.3597 28.1608 35.9837 29.5306C34.6586 30.9004 33.9452 32.4731 33.9452 34.401C33.9452 36.2781 34.6077 37.9015 35.9837 39.2713C37.3087 40.6411 38.9395 41.3006 40.8761 41.3006C42.7617 41.3006 44.3925 40.6411 45.7685 39.2713C47.0935 37.9522 47.7561 36.3288 47.7561 34.401C47.7561 32.5238 47.0935 30.9004 45.7685 29.5306C44.3925 28.1608 42.7617 27.5013 40.8761 27.5013ZM40.8761 43.9895C38.226 43.9895 35.9327 43.0256 34.0471 41.1484C32.1615 39.2713 31.2441 36.9883 31.2441 34.3502C31.2441 31.7121 32.1615 29.4291 34.0471 27.552C35.9327 25.6749 38.226 24.7617 40.8761 24.7617C43.5262 24.7617 45.8195 25.6749 47.7051 27.552C49.5907 29.4291 50.559 31.7121 50.559 34.3502C50.559 36.9883 49.6417 39.2713 47.7051 41.1484C45.8195 43.0256 43.5262 43.9895 40.8761 43.9895Z" fill="black"/>
<path d="M40.8772 44.2428C38.1762 44.2428 35.7809 43.2789 33.8443 41.3511C31.9078 39.4232 30.9395 37.0895 30.9395 34.3499C30.9395 31.6104 31.9078 29.2766 33.8443 27.3488C35.7809 25.4209 38.1252 24.457 40.8772 24.457C43.6292 24.457 45.9734 25.4209 47.91 27.3488C49.8466 29.2766 50.8149 31.6104 50.8149 34.3499C50.8149 37.0895 49.8466 39.4232 47.91 41.3511C45.9225 43.2789 43.5782 44.2428 40.8772 44.2428ZM40.8772 25.0151C38.2781 25.0151 36.0867 25.9283 34.252 27.7547C32.4174 29.581 31.5 31.8133 31.5 34.3499C31.5 36.9373 32.4174 39.1188 34.252 40.9452C36.0867 42.7716 38.329 43.6848 40.8772 43.6848C43.4763 43.6848 45.6677 42.7716 47.5023 40.9452C49.337 39.1188 50.2543 36.8866 50.2543 34.3499C50.2543 31.7626 49.337 29.5303 47.5023 27.7547C45.6677 25.9283 43.4253 25.0151 40.8772 25.0151ZM40.8772 41.5032C38.8896 41.5032 37.2079 40.793 35.8319 39.4232C34.4559 38.0534 33.7424 36.3285 33.7424 34.4006C33.7424 32.4728 34.4559 30.7479 35.8319 29.3781C37.2079 28.0083 38.9406 27.2981 40.8772 27.2981C42.8138 27.2981 44.5465 28.0083 45.9225 29.3781C47.2985 30.7479 48.012 32.4728 48.012 34.4006C48.012 36.3792 47.2985 38.0534 45.9225 39.4232C44.5465 40.793 42.8138 41.5032 40.8772 41.5032ZM40.8772 27.7547C39.0425 27.7547 37.4627 28.4142 36.1886 29.6825C34.9145 31.0016 34.252 32.5743 34.252 34.3499C34.252 36.1763 34.9145 37.749 36.1886 39.0173C37.4627 40.2856 39.0425 40.9452 40.8772 40.9452C42.7118 40.9452 44.2407 40.3364 45.5658 39.0173C46.8398 37.749 47.5023 36.1763 47.5023 34.3499C47.5023 32.5235 46.8398 30.9509 45.5658 29.6825C44.2407 28.4142 42.6609 27.7547 40.8772 27.7547Z" fill="black"/>
<path d="M51.6582 43.9895V24.7617H53.0342L59.9142 35.72V24.7617H62.6662V43.9895H61.2902L54.4102 32.9805V43.9895H51.6582Z" fill="black"/>
<path d="M62.7178 44.2429H61.3418C61.2399 44.2429 61.189 44.1922 61.138 44.1414L54.7167 33.9441V43.9892C54.7167 44.1414 54.6147 44.2429 54.4619 44.2429H51.7099C51.557 44.2429 51.4551 44.1414 51.4551 43.9892V24.7615C51.4551 24.6093 51.557 24.5078 51.7099 24.5078H53.0859C53.1878 24.5078 53.2388 24.5586 53.2897 24.6093L59.711 34.8066V24.7615C59.711 24.6093 59.8129 24.5078 59.9658 24.5078H62.7178C62.8707 24.5078 62.9726 24.6093 62.9726 24.7615V43.9892C62.9726 44.1414 62.8198 44.2429 62.7178 44.2429ZM61.4438 43.7356H62.4121V25.0151H60.1697V35.7197C60.1697 35.8212 60.0678 35.9227 59.9658 35.9734C59.8639 36.0241 59.711 35.9734 59.6601 35.872L52.831 25.0151H51.8628V43.7356H54.1051V33.0309C54.1051 32.9295 54.2071 32.828 54.309 32.7773C54.4109 32.7266 54.5638 32.7773 54.6147 32.8787L61.4438 43.7356Z" fill="black"/>
<path d="M73.4993 24.7617H74.8753V27.5013H73.4993C71.6137 27.5013 69.9829 28.1608 68.6069 29.5306C67.2819 30.9004 66.6194 32.4731 66.6194 34.401C66.6194 36.2781 67.2819 37.9015 68.6069 39.2713C69.9829 40.6411 71.5627 41.3006 73.4993 41.3006H74.8753V44.0402H73.4993C70.8493 44.0402 68.556 43.0763 66.6703 41.1992C64.7847 39.322 63.8164 37.0391 63.8164 34.401C63.8164 31.7628 64.7847 29.4799 66.6703 27.6027C68.556 25.6749 70.7983 24.7617 73.4993 24.7617Z" fill="black"/>
<path d="M74.8762 44.2428H73.5002C70.7992 44.2428 68.404 43.2789 66.4674 41.3511C64.5308 39.4232 63.5625 37.0895 63.5625 34.3499C63.5625 31.6611 64.5308 29.2766 66.4674 27.3488C68.404 25.4209 70.7482 24.457 73.5002 24.457H74.8762C75.0291 24.457 75.131 24.5585 75.131 24.7107V27.4503C75.131 27.6025 75.0291 27.7039 74.8762 27.7039H73.5002C71.6656 27.7039 70.0858 28.3634 68.8117 29.6318C67.5376 30.9001 66.8751 32.4728 66.8751 34.2992C66.8751 36.1256 67.5376 37.6983 68.8117 38.9666C70.1367 40.2857 71.6656 40.8945 73.5002 40.8945H74.8762C75.0291 40.8945 75.131 40.9959 75.131 41.1481V43.8877C75.131 44.1414 75.0291 44.2428 74.8762 44.2428ZM73.5002 25.0151C70.9011 25.0151 68.7097 25.9283 66.8751 27.7547C65.0404 29.581 64.1231 31.8133 64.1231 34.3499C64.1231 36.9373 65.0404 39.1188 66.8751 40.9452C68.7097 42.7716 70.9521 43.6848 73.5002 43.6848H74.6214V41.4525H73.5002C71.5127 41.4525 69.8309 40.7423 68.404 39.3725C67.028 38.0027 66.3145 36.2778 66.3145 34.3499C66.3145 32.4221 67.028 30.6972 68.404 29.3274C69.8309 27.9576 71.5127 27.2473 73.5002 27.2473H74.6214V25.0151H73.5002Z" fill="black"/>
<path d="M78.7813 35.72V43.9895H76.0293V24.7617H78.7813V32.9805H84.2853V24.7617H87.0372V43.9895H84.2853V35.72H78.7813Z" fill="black"/>
<path d="M87.0362 44.2429H84.2842C84.1313 44.2429 84.0294 44.1414 84.0294 43.9892V36.0242H79.0351V43.9892C79.0351 44.1414 78.9331 44.2429 78.7803 44.2429H76.0283C75.8754 44.2429 75.7734 44.1414 75.7734 43.9892V24.7615C75.7734 24.6093 75.8754 24.5078 76.0283 24.5078H78.7803C78.9331 24.5078 79.0351 24.6093 79.0351 24.7615V32.7266H84.0294V24.7615C84.0294 24.6093 84.1313 24.5078 84.2842 24.5078H87.0362C87.1891 24.5078 87.291 24.6093 87.291 24.7615V43.9892C87.291 44.1414 87.1891 44.2429 87.0362 44.2429ZM84.539 43.7356H86.7814V25.0151H84.539V32.9802C84.539 33.1324 84.4371 33.2339 84.2842 33.2339H78.7803C78.6274 33.2339 78.5254 33.1324 78.5254 32.9802V25.0151H76.2831V43.7356H78.5254V35.7705C78.5254 35.6183 78.6274 35.5169 78.7803 35.5169H84.2842C84.4371 35.5169 84.539 35.6183 84.539 35.7705V43.7356V43.7356Z" fill="black"/>
<path d="M88.1895 43.9895L93.6934 24.7617H95.0694L100.573 43.9895H97.8214C96.904 41.2499 95.7829 39.8801 94.3559 39.8801C92.9799 39.8801 91.8587 41.2499 90.8904 43.9895H88.1895ZM94.4069 31.6106L92.3174 38.4596C93.6934 37.5464 95.0694 37.5464 96.4454 38.4596L94.4069 31.6106Z" fill="black"/>
<path d="M100.625 44.2428H97.8733C97.7713 44.2428 97.6694 44.1921 97.6185 44.0399C96.7521 41.4018 95.6819 40.0828 94.4078 40.0828C93.1847 40.0828 92.1144 41.4018 91.1971 44.0399C91.1461 44.1413 91.0442 44.2428 90.9423 44.2428H88.1904C88.0884 44.2428 88.0375 44.1921 87.9865 44.1414C87.9355 44.0907 87.9355 43.9892 87.9355 43.8877L93.4395 24.66C93.4904 24.5585 93.5924 24.457 93.6943 24.457H95.0703C95.1723 24.457 95.2742 24.5585 95.3251 24.66L100.829 43.8877C100.829 43.9892 100.829 44.0399 100.778 44.1414C100.778 44.1921 100.676 44.2428 100.625 44.2428ZM98.0261 43.7355H100.268L94.9174 25.0151H93.9491L88.598 43.7355H90.7894C91.7577 40.9452 92.9299 39.6262 94.4078 39.6262C95.8857 39.5754 97.1088 40.9452 98.0261 43.7355ZM96.4972 38.7637C96.4463 38.7637 96.3954 38.7637 96.3444 38.7129C95.0703 37.8505 93.7962 37.8505 92.4712 38.7129C92.3693 38.7637 92.2673 38.7637 92.1654 38.7129C92.0635 38.6622 92.0126 38.51 92.0635 38.4086L94.153 31.5596C94.2039 31.3567 94.6116 31.3567 94.6626 31.5596L96.7521 38.4086C96.803 38.51 96.7521 38.6115 96.6502 38.7129C96.5992 38.7129 96.5482 38.7637 96.4972 38.7637ZM94.4078 32.5236L92.777 37.9012C93.8472 37.3939 94.9684 37.3939 96.0386 37.9012L94.4078 32.5236Z" fill="black"/>
<path d="M104.539 37.1405H105.202C106.527 37.1405 107.648 36.6839 108.616 35.7199C109.533 34.8067 110.043 33.6399 110.043 32.3209C110.043 31.0018 109.584 29.835 108.616 28.9218C107.699 27.9579 106.527 27.5012 105.202 27.5012H104.539V37.1405ZM109.635 38.4595L111.827 43.9894H108.667L106.934 39.6771C106.374 39.7786 105.813 39.8293 105.202 39.8293H104.539V43.9387H101.787V24.7109H105.253C107.342 24.7109 109.126 25.4719 110.604 26.9432C112.082 28.4144 112.846 30.1901 112.846 32.2701C112.846 34.3502 112.082 36.1258 110.604 37.5971C110.247 37.9522 109.941 38.2566 109.635 38.4595Z" fill="black"/>
<path d="M111.828 44.2429H108.668C108.566 44.2429 108.464 44.1921 108.413 44.0907L106.782 39.9813C106.273 40.0828 105.763 40.1335 105.202 40.1335H104.795V43.9892C104.795 44.1414 104.693 44.2429 104.54 44.2429H101.788C101.635 44.2429 101.533 44.1414 101.533 43.9892V24.7615C101.533 24.6093 101.635 24.5078 101.788 24.5078H105.253C107.394 24.5078 109.28 25.2688 110.808 26.7908C112.337 28.3128 113.102 30.1392 113.102 32.3207C113.102 34.4515 112.337 36.3286 110.808 37.8506C110.554 38.0535 110.299 38.3579 109.993 38.5608L112.133 43.8878C112.184 43.9892 112.133 44.04 112.082 44.1414C111.981 44.1922 111.93 44.2429 111.828 44.2429ZM108.821 43.7356H111.42L109.33 38.6116C109.279 38.5101 109.33 38.3579 109.432 38.3072C109.738 38.1042 109.993 37.8505 110.35 37.4954C111.777 36.0749 112.49 34.35 112.49 32.3714C112.49 30.3421 111.777 28.6172 110.35 27.1967C108.923 25.7762 107.19 25.0659 105.152 25.0659H101.992V43.7863H104.234V39.9306C104.234 39.7784 104.336 39.6769 104.489 39.6769H105.152C105.712 39.6769 106.273 39.6262 106.833 39.5247C106.935 39.474 107.088 39.5755 107.139 39.6769L108.821 43.7356ZM105.202 37.394H104.54C104.387 37.394 104.285 37.2925 104.285 37.1403V27.5011C104.285 27.3489 104.387 27.2474 104.54 27.2474H105.202C106.629 27.2474 107.802 27.7547 108.821 28.7187C109.84 29.6826 110.299 30.9002 110.299 32.3207C110.299 33.6905 109.789 34.908 108.821 35.872C107.802 36.8866 106.629 37.394 105.202 37.394ZM104.795 36.8359H105.202C106.477 36.8359 107.547 36.3793 108.413 35.5169C109.33 34.6544 109.738 33.5383 109.738 32.3207C109.738 31.0524 109.28 29.9869 108.413 29.1245C107.496 28.2113 106.477 27.8054 105.202 27.8054H104.795V36.8359Z" fill="black"/>
<path d="M123.589 27.5013C121.704 27.5013 120.073 28.1608 118.697 29.5306C117.321 30.9004 116.658 32.4731 116.658 34.401C116.658 36.2781 117.321 37.9015 118.697 39.2713C120.022 40.6411 121.653 41.3006 123.589 41.3006C125.475 41.3006 127.106 40.6411 128.482 39.2713C129.858 37.9522 130.52 36.3288 130.52 34.401C130.52 32.5238 129.858 30.9004 128.482 29.5306C127.157 28.1608 125.526 27.5013 123.589 27.5013ZM123.589 43.9895C120.939 43.9895 118.646 43.0256 116.76 41.1484C114.875 39.2713 113.906 36.9883 113.906 34.3502C113.906 31.7121 114.875 29.4291 116.76 27.552C118.646 25.6749 120.939 24.7617 123.589 24.7617C126.239 24.7617 128.533 25.6749 130.418 27.552C132.304 29.4291 133.221 31.7121 133.221 34.3502C133.221 36.9883 132.304 39.2713 130.418 41.1484C128.533 43.0256 126.239 43.9895 123.589 43.9895Z" fill="black"/>
<path d="M123.59 44.2428C120.889 44.2428 118.494 43.2789 116.557 41.3511C114.621 39.4232 113.652 37.0895 113.652 34.3499C113.652 31.6611 114.621 29.2766 116.557 27.3488C118.494 25.4209 120.838 24.457 123.59 24.457C126.342 24.457 128.686 25.4209 130.623 27.3488C132.56 29.2766 133.528 31.6104 133.528 34.3499C133.528 37.0895 132.56 39.4232 130.623 41.3511C128.686 43.2789 126.342 44.2428 123.59 44.2428ZM123.59 25.0151C120.991 25.0151 118.8 25.9283 116.965 27.7547C115.13 29.581 114.213 31.8133 114.213 34.3499C114.213 36.9373 115.13 39.1188 116.965 40.9452C118.8 42.7716 121.042 43.6848 123.59 43.6848C126.138 43.6848 128.381 42.7716 130.215 40.9452C132.05 39.1188 132.967 36.8866 132.967 34.3499C132.967 31.7626 132.05 29.5303 130.215 27.7547C128.432 25.9283 126.189 25.0151 123.59 25.0151ZM123.59 41.5032C121.603 41.5032 119.921 40.793 118.545 39.4232C117.169 38.0534 116.455 36.3285 116.455 34.4006C116.455 32.4221 117.169 30.7479 118.545 29.3781C119.921 28.0083 121.653 27.2981 123.59 27.2981C125.527 27.2981 127.259 28.0083 128.635 29.3781C130.011 30.7479 130.725 32.4728 130.725 34.4006C130.725 36.3792 130.011 38.0534 128.635 39.4232C127.259 40.793 125.578 41.5032 123.59 41.5032ZM123.59 27.7547C121.755 27.7547 120.176 28.4142 118.902 29.6825C117.627 30.9509 116.965 32.5235 116.965 34.3499C116.965 36.1763 117.627 37.749 118.902 39.0173C120.176 40.2856 121.755 40.9452 123.59 40.9452C125.425 40.9452 127.005 40.2856 128.279 39.0173C129.553 37.749 130.215 36.1763 130.215 34.3499C130.215 32.5235 129.553 30.9509 128.279 29.6825C127.005 28.4142 125.425 27.7547 123.59 27.7547Z" fill="black"/>
<path d="M147.46 24.7275H151.741L143.179 54.6374H141.038L132.477 24.7275H136.757L142.148 43.9835L147.46 24.7275Z" fill="black"/>
<path d="M29.2485 46.5286L29.2344 49.0527L136.506 49.8649L136.52 47.3408L29.2485 46.5286Z" fill="black"/>
<path d="M115.099 15.7882C115.462 15.7882 115.757 15.4972 115.757 15.1383C115.757 14.7793 115.462 14.4883 115.099 14.4883C114.736 14.4883 114.441 14.7793 114.441 15.1383C114.441 15.4972 114.736 15.7882 115.099 15.7882Z" fill="black" fill-opacity="0.98"/>
<path d="M46.8726 15.7882C47.2359 15.7882 47.5304 15.4972 47.5304 15.1383C47.5304 14.7793 47.2359 14.4883 46.8726 14.4883C46.5093 14.4883 46.2148 14.7793 46.2148 15.1383C46.2148 15.4972 46.5093 15.7882 46.8726 15.7882Z" fill="black" fill-opacity="0.98"/>
<path d="M40.6106 59.6628L41.7717 61.3559L41.6081 61.4699C41.4936 61.3885 41.4119 61.3559 41.3465 61.3559C41.2647 61.3559 41.0848 61.4373 40.8068 61.6164C40.1854 61.9745 39.6294 62.235 39.1388 62.3815C38.6482 62.528 38.1085 62.5931 37.4708 62.5931C36.2116 62.5931 35.1977 62.3001 34.3963 61.6978C33.9548 61.3559 33.595 60.9326 33.3334 60.4117C33.0554 59.8582 32.9082 59.2559 32.9082 58.6047C32.9082 57.7093 33.1699 56.9116 33.6932 56.2279C34.5108 55.1534 35.77 54.6162 37.4544 54.6162C38.0758 54.6162 38.6318 54.6813 39.1224 54.8278C39.613 54.9744 40.169 55.2186 40.7905 55.593C41.0685 55.7558 41.2483 55.8535 41.3301 55.8535C41.3955 55.8535 41.4773 55.8209 41.5918 55.7395L41.7553 55.8697L40.5942 57.5465L40.447 57.4326C40.447 57.3837 40.4634 57.3512 40.4634 57.3349C40.4634 57.286 40.4634 57.2698 40.4634 57.2535C40.4634 57.0256 40.1527 56.7814 39.5313 56.5046C38.9425 56.2442 38.3538 56.0976 37.7651 56.0976C36.9311 56.0976 36.2443 56.3093 35.7046 56.7488C35.0832 57.2372 34.7725 57.8721 34.7725 58.6372C34.7725 59.4024 35.0832 60.0373 35.7046 60.5257C36.2443 60.9489 36.9311 61.1768 37.7651 61.1768C38.4192 61.1768 39.057 61.014 39.7111 60.6884C40.2181 60.428 40.4634 60.2163 40.4634 60.021C40.4634 60.0047 40.4634 59.9559 40.447 59.8256L40.6106 59.6628Z" fill="black"/>
<path d="M50.4556 60.4927H46.9233L46.5308 61.323C46.4327 61.5184 46.3837 61.6811 46.3837 61.7951C46.3837 62.0067 46.5308 62.1532 46.8252 62.2184V62.4137H43.9961V62.2184C44.176 62.1858 44.3068 62.137 44.3886 62.0556C44.4703 61.9742 44.5685 61.8277 44.6829 61.5998L47.4957 55.9345C47.5938 55.7229 47.6592 55.5275 47.6592 55.381C47.6592 55.2019 47.5284 55.0554 47.2667 54.9414V54.7461H50.2594V54.9414C50.0141 55.0391 49.8833 55.2019 49.8833 55.4136C49.8833 55.5601 49.9487 55.7554 50.0631 55.9671L52.974 61.4532C53.1375 61.7463 53.252 61.9416 53.3501 62.0393C53.4483 62.1207 53.5791 62.1858 53.7753 62.2184V62.4137H50.6355V62.2184C50.9299 62.1695 51.077 62.023 51.077 61.7951C51.077 61.6486 51.0116 61.4858 50.8972 61.2742L50.4556 60.4927ZM49.916 59.4183L48.6568 56.9601L47.463 59.4183H49.916Z" fill="black"/>
<path d="M58.4196 59.2558V61.6977C58.4196 61.8443 58.4523 61.9419 58.5177 62.0233C58.5831 62.1047 58.6976 62.1536 58.8611 62.2187V62.414H56.1465V62.2187C56.31 62.1698 56.4245 62.121 56.4899 62.0396C56.5553 61.9582 56.588 61.8605 56.588 61.714V55.4627C56.588 55.3162 56.5553 55.2185 56.4899 55.1371C56.4245 55.0557 56.31 55.0069 56.1465 54.9581V54.7627H61.1833C61.8374 54.7627 62.328 54.7953 62.6714 54.8604C63.0148 54.9255 63.3256 55.0394 63.5872 55.2185C64.1432 55.5767 64.4212 56.1627 64.4212 56.9767C64.4212 57.5953 64.2577 58.0837 63.9143 58.4256C63.5709 58.7674 63.0312 59.0279 62.2626 59.1744L63.718 61.1931C63.9797 61.5675 64.1923 61.8117 64.3558 61.9582C64.5193 62.0885 64.6992 62.1861 64.8955 62.2187V62.414H61.6575V62.2187C61.9028 62.1536 62.0173 62.0559 62.0173 61.9094C62.0173 61.8117 61.9355 61.6489 61.8047 61.4535L60.2675 59.2721H58.4196V59.2558ZM58.4196 57.8721H61.1996C61.6248 57.8721 61.9355 57.8232 62.1318 57.7418C62.4098 57.6116 62.557 57.3674 62.557 57.0093C62.557 56.6837 62.4588 56.4558 62.2626 56.3255C62.0664 56.1953 61.7066 56.1302 61.1996 56.1302H58.4196V57.8721Z" fill="black"/>
<path d="M80.2175 55.4468L79.2854 57.2375L79.1219 57.1561C79.1219 57.0096 79.0728 56.8794 78.9747 56.798C78.713 56.5701 78.3369 56.3747 77.8136 56.2282C77.3067 56.0817 76.7834 56.0003 76.2764 56.0003C75.8349 56.0003 75.4424 56.0654 75.099 56.1794C74.6084 56.3585 74.3631 56.6189 74.3631 56.9445C74.3631 57.1724 74.4775 57.3189 74.7228 57.4166C74.9681 57.5143 75.426 57.5794 76.0965 57.6445L77.1758 57.7259C78.1243 57.791 78.8439 57.9864 79.3345 58.2794C79.6125 58.4422 79.8414 58.6538 80.0213 58.9306C80.2502 59.2725 80.3647 59.6632 80.3647 60.0864C80.3647 60.8679 80.0049 61.4865 79.3018 61.926C78.6313 62.3656 77.7155 62.5772 76.5708 62.5772C75.4097 62.5772 74.2977 62.333 73.2183 61.8446C73.1366 61.8121 73.0875 61.7958 73.0385 61.7958C72.9403 61.7958 72.8586 61.8446 72.7768 61.9586L72.6133 61.8935L73.3982 60.0213L73.5618 60.0864C73.5618 60.119 73.5618 60.1353 73.5618 60.1353C73.5618 60.2492 73.6108 60.3469 73.6926 60.4283C73.9215 60.6237 74.314 60.8027 74.8864 60.9493C75.4424 61.0958 75.9984 61.1772 76.5544 61.1772C77.045 61.1772 77.4702 61.1121 77.8627 60.9818C78.3369 60.8353 78.5822 60.5748 78.5822 60.233C78.5822 59.9562 78.4187 59.7609 78.0916 59.6469C77.879 59.5818 77.4702 59.5167 76.8978 59.4678L75.8185 59.3864C75.2298 59.3376 74.7883 59.2888 74.4939 59.2074C74.1832 59.1422 73.9215 59.0283 73.6926 58.8818C73.3982 58.7027 73.1693 58.4585 73.0058 58.1329C72.8422 57.8236 72.7605 57.4817 72.7605 57.1073C72.7605 56.277 73.1202 55.6259 73.8398 55.1863C74.4939 54.7793 75.3116 54.584 76.2764 54.584C76.7997 54.584 77.2903 54.6491 77.7482 54.7631C78.2061 54.877 78.7457 55.0887 79.3835 55.3817C79.5634 55.4631 79.6942 55.5119 79.776 55.5119C79.8578 55.5119 79.9395 55.4631 80.054 55.3654L80.2175 55.4468Z" fill="black"/>
<path d="M87.6099 56.1303V61.6978C87.6099 61.8443 87.6426 61.942 87.708 62.0234C87.7734 62.1048 87.8879 62.1537 88.0514 62.2188V62.4141H85.3368V62.2188C85.5003 62.1699 85.6148 62.1211 85.6802 62.0397C85.7456 61.9583 85.7783 61.8606 85.7783 61.7141V56.1465H83.5052C83.358 56.1465 83.2435 56.1791 83.1781 56.2442C83.0964 56.3093 83.0473 56.4233 82.9982 56.5861H82.8184V54.3232H82.9982C83.0473 54.486 83.0964 54.6 83.1781 54.6651C83.2599 54.7302 83.358 54.7628 83.5052 54.7628H89.883C90.0301 54.7628 90.1446 54.7302 90.21 54.6651C90.2918 54.6 90.3408 54.486 90.3899 54.3232H90.5698V56.5861H90.3899C90.3408 56.4233 90.2754 56.3093 90.21 56.2442C90.1283 56.1791 90.0301 56.1465 89.883 56.1465H87.6099V56.1303Z" fill="black"/>
<path d="M101.183 55.4461V59.4997C101.183 60.4276 101.003 61.1114 100.627 61.5346C100.038 62.2184 98.926 62.5602 97.2906 62.5602C96.195 62.5602 95.3119 62.3974 94.6414 62.0556C94.1508 61.8114 93.8238 61.4695 93.6439 61.03C93.4803 60.623 93.3986 60.102 93.3986 59.4997V55.4461C93.3986 55.2996 93.3659 55.2019 93.3004 55.1205C93.235 55.0391 93.1206 54.9903 92.957 54.9414V54.7461H95.6717V54.9414C95.5081 54.9903 95.3937 55.0391 95.3282 55.1205C95.2628 55.2019 95.2301 55.2996 95.2301 55.4461V59.1253C95.2301 59.5485 95.2628 59.8741 95.3446 60.102C95.4264 60.33 95.5572 60.509 95.7371 60.6555C96.1132 60.9486 96.6529 61.0951 97.3561 61.0951C98.0592 61.0951 98.6152 60.9486 98.975 60.6555C99.1549 60.509 99.2857 60.33 99.3675 60.102C99.4329 59.8741 99.482 59.5485 99.482 59.1253V55.4461C99.482 55.2996 99.4493 55.2019 99.3838 55.1205C99.3184 55.0554 99.204 54.9903 99.0404 54.9414V54.7461H101.608V54.9414C101.444 54.9903 101.33 55.0391 101.264 55.1205C101.215 55.2019 101.183 55.2996 101.183 55.4461Z" fill="black"/>
<path d="M105.01 61.6974V55.4461C105.01 55.2996 104.977 55.2019 104.912 55.1205C104.846 55.0391 104.732 54.9903 104.568 54.9414V54.7461H109.082C110.014 54.7461 110.766 54.8601 111.306 55.088C112.058 55.4136 112.614 55.9508 112.941 56.7159C113.17 57.2369 113.285 57.8555 113.285 58.5718C113.285 59.8741 112.892 60.8672 112.107 61.5509C111.747 61.8439 111.339 62.0719 110.864 62.2021C110.39 62.3323 109.785 62.3974 109.082 62.3974H104.568V62.2021C104.732 62.1533 104.846 62.1044 104.912 62.023C104.977 61.9579 105.01 61.8439 105.01 61.6974ZM106.858 61.0137H108.82C109.72 61.0137 110.374 60.8021 110.783 60.3951C111.208 59.9718 111.42 59.3532 111.42 58.5718C111.42 57.7904 111.208 57.1717 110.783 56.7485C110.57 56.5368 110.308 56.374 109.998 56.2764C109.687 56.1787 109.294 56.1298 108.82 56.1298H106.858V61.0137Z" fill="black"/>
<path d="M118.502 55.4464V61.6977C118.502 61.8443 118.534 61.9419 118.6 62.0233C118.665 62.1047 118.78 62.1536 118.943 62.2187V62.414H116.229V62.2187C116.392 62.1698 116.507 62.121 116.572 62.0396C116.637 61.9582 116.67 61.8605 116.67 61.714V55.4627C116.67 55.3162 116.637 55.2185 116.572 55.1371C116.507 55.0557 116.392 55.0069 116.229 54.9581V54.7627H118.943V54.9581C118.78 55.0069 118.665 55.0557 118.6 55.1371C118.534 55.2022 118.502 55.2999 118.502 55.4464Z" fill="black"/>
<path d="M126.384 54.584C127.61 54.584 128.624 54.8933 129.442 55.5119C130.423 56.2608 130.897 57.3027 130.897 58.6376C130.897 59.8911 130.407 60.8841 129.442 61.633C128.641 62.2516 127.627 62.5609 126.4 62.5609C125.174 62.5609 124.16 62.2516 123.359 61.633C122.377 60.8841 121.887 59.8585 121.887 58.5725C121.887 57.2701 122.377 56.2445 123.359 55.5119C124.16 54.9096 125.174 54.6003 126.384 54.584ZM126.384 56.0329C125.599 56.0329 124.945 56.2933 124.454 56.798C123.996 57.2701 123.767 57.8724 123.767 58.5887C123.767 59.305 123.996 59.8911 124.454 60.3632C124.961 60.8679 125.599 61.1283 126.4 61.1283C127.185 61.1283 127.839 60.8679 128.346 60.3632C128.804 59.8911 129.033 59.3213 129.033 58.6213C129.033 57.8724 128.804 57.2701 128.346 56.798C127.823 56.2933 127.185 56.0491 126.384 56.0329Z" fill="black"/>
<path d="M53.5292 17.9387V18.134H52.1719V17.9387C52.2373 17.9061 52.3027 17.8247 52.3354 17.727L53.9707 12.9897C54.0361 12.8269 54.0525 12.7293 54.0525 12.6967C54.0525 12.6316 54.0198 12.5665 53.938 12.5013V12.3223H55.5897V12.5013C55.5243 12.5502 55.5079 12.599 55.5079 12.6641C55.5079 12.6804 55.5406 12.7944 55.6061 12.9897L57.1923 17.4991C57.2741 17.7433 57.3395 17.8898 57.4049 17.9224C57.4376 17.9387 57.4703 17.9387 57.503 17.955V18.1503H55.8677V17.955C55.9822 17.9061 56.0312 17.841 56.0312 17.7433C56.0312 17.6782 56.0149 17.6131 55.9985 17.5317L55.7205 16.5712H53.7418L53.4638 17.4829C53.4311 17.5643 53.4311 17.6456 53.4311 17.727C53.4147 17.841 53.4638 17.9224 53.5292 17.9387ZM54.7393 13.4944H54.723L53.9707 15.8223H55.4916L54.7393 13.4944Z" fill="black"/>
<path d="M58.9909 17.5968V12.8432C58.9909 12.6153 58.9255 12.5013 58.7783 12.5013V12.3223H61.4766C62.1961 12.3223 62.7194 12.4851 63.0629 12.7944C63.4063 13.1037 63.5698 13.4781 63.5698 13.9014C63.5698 14.4712 63.2591 14.8944 62.6377 15.1386C63.3245 15.3665 63.6843 15.8712 63.6843 16.62C63.6843 17.0759 63.5207 17.434 63.1773 17.7108C62.8339 17.9875 62.327 18.134 61.6074 18.134H58.7129V17.9387C58.8928 17.9387 58.9909 17.8247 58.9909 17.5968ZM61.264 13.1851H60.152V14.6665H61.264C61.7219 14.6665 62.0489 14.6014 62.2125 14.4712C62.376 14.3409 62.4578 14.1618 62.4578 13.9177C62.4578 13.6735 62.376 13.4944 62.2125 13.3641C62.0489 13.2339 61.7382 13.1851 61.264 13.1851ZM61.1822 15.5293H60.1356V17.2549H61.1822C62.098 17.2549 62.5559 16.9782 62.5559 16.4084C62.5723 15.8223 62.1144 15.5293 61.1822 15.5293Z" fill="black"/>
<path d="M65.2373 13.4782H65.041V12.0781H65.2373C65.2863 12.2409 65.4008 12.3223 65.5807 12.3223H69.0966C69.2765 12.3223 69.391 12.2409 69.44 12.0781H69.6363V13.5107H69.44C69.391 13.3316 69.2765 13.2502 69.0966 13.2502H67.9355V17.6131C67.9355 17.7271 67.9519 17.8085 68.001 17.8736C68.0337 17.9225 68.0827 17.955 68.1154 17.955V18.1504H66.5455V17.955C66.6927 17.955 66.7581 17.8411 66.7581 17.6131V13.2502H65.597C65.4008 13.234 65.2863 13.3154 65.2373 13.4782Z" fill="black"/>
<path d="M70.7324 15.22C70.7324 14.3572 70.9941 13.6409 71.5174 13.0711C72.0407 12.5176 72.7112 12.2246 73.5288 12.2246C74.3465 12.2246 75.0333 12.5014 75.5566 13.0711C76.0799 13.6246 76.3416 14.3409 76.3416 15.22C76.3416 16.0991 76.0799 16.8154 75.5566 17.3689C75.0333 17.9224 74.3628 18.1992 73.5288 18.1992C72.7112 18.1992 72.0407 17.9224 71.5174 17.3689C70.9941 16.7991 70.7324 16.0828 70.7324 15.22ZM71.8608 15.22C71.8608 15.8549 72.0243 16.3596 72.335 16.734C72.6621 17.1084 73.0546 17.2875 73.5288 17.2875C74.0194 17.2875 74.4119 17.1084 74.739 16.734C75.066 16.3596 75.2132 15.8549 75.2132 15.22C75.2132 14.5851 75.0497 14.0967 74.739 13.7223C74.4119 13.3479 74.0194 13.1688 73.5288 13.1688C73.0546 13.1688 72.6457 13.3479 72.335 13.7223C72.008 14.0805 71.8608 14.5851 71.8608 15.22Z" fill="black"/>
<path d="M77.8303 14.0157V12.8273C77.8303 12.7133 77.8139 12.6319 77.7649 12.5668C77.7321 12.5017 77.6831 12.4691 77.6504 12.4691V12.29H79.2203V12.4691C79.1549 12.4691 79.1058 12.5017 79.0731 12.5668C79.0241 12.6319 79.0077 12.7133 79.0077 12.8273V13.7064C79.0077 14.0971 79.0895 14.3901 79.2366 14.5366C79.3838 14.6994 79.7109 14.7808 80.1851 14.7808H80.9864V12.8273C80.9864 12.7133 80.9701 12.6319 80.921 12.5668C80.872 12.5017 80.8229 12.4691 80.7739 12.4691V12.29H82.3765V12.4691C82.3111 12.4691 82.262 12.5017 82.2293 12.5668C82.1802 12.6319 82.1639 12.7133 82.1639 12.8273V17.5809C82.1639 17.8088 82.2456 17.9227 82.4092 17.9227V18.1181H80.8229V17.9227C80.8556 17.9227 80.9047 17.8902 80.9374 17.8413C80.9701 17.7925 81.0028 17.6948 81.0028 17.5809V15.7087H79.76C79.1549 15.7087 78.697 15.5622 78.3536 15.2529C78.0102 14.9599 77.8303 14.5366 77.8303 14.0157Z" fill="black"/>
<path d="M84.3879 17.5969V12.8433C84.3879 12.6153 84.3061 12.5014 84.1426 12.5014V12.3223H88.0183C88.2145 12.3223 88.329 12.2409 88.3617 12.0781H88.5416V13.5758H88.3617C88.3454 13.4619 88.3127 13.3642 88.2636 13.3154C88.2145 13.2665 88.1328 13.234 88.0183 13.234H85.549V14.6666H87.0371C87.1516 14.6666 87.2333 14.6503 87.2824 14.6014C87.3315 14.5526 87.3642 14.4875 87.3805 14.3735H87.5768V15.8875H87.3805C87.3642 15.7736 87.3315 15.6922 87.2824 15.6596C87.2333 15.627 87.1516 15.5945 87.0371 15.5945H85.549V17.2062H88.0183C88.2145 17.2062 88.329 17.0922 88.3617 16.8806H88.5416V18.362H88.3617C88.329 18.2155 88.1982 18.1341 88.0183 18.1341H84.1426V17.9387C84.3225 17.9387 84.3879 17.8248 84.3879 17.5969Z" fill="black"/>
<path d="M91.5662 17.939V18.1344H89.9473V17.939C90.0617 17.939 90.1599 17.8739 90.2416 17.7599L91.926 15.1389L90.4706 12.8598C90.3397 12.6482 90.2089 12.5342 90.0781 12.5017V12.3226H91.8606V12.5017C91.7298 12.5342 91.6644 12.5831 91.6644 12.6482C91.6644 12.7133 91.7134 12.8273 91.8115 12.9901L92.5638 14.2273L93.267 13.0389C93.3487 12.8924 93.3814 12.7784 93.3814 12.6645C93.3814 12.5505 93.2997 12.5017 93.1198 12.4691V12.29H94.935V12.4691C94.8859 12.4691 94.8369 12.5017 94.7878 12.518C94.7388 12.5505 94.7224 12.5668 94.7061 12.5831C94.6897 12.5994 94.6734 12.6319 94.6243 12.697C94.5916 12.7621 94.5589 12.7947 94.5589 12.7947L93.1361 15.025L94.6079 17.353C94.6243 17.3855 94.657 17.4343 94.6897 17.4995C94.7388 17.5646 94.7551 17.6134 94.7715 17.646C94.7878 17.6785 94.8205 17.7111 94.8532 17.7437C94.8859 17.7925 94.9187 17.8251 94.9514 17.8413C94.9841 17.8576 95.0168 17.8739 95.0495 17.8902V18.0855H93.2997V17.8902C93.4305 17.8739 93.4959 17.8413 93.4959 17.7599C93.4959 17.6948 93.4469 17.5646 93.3324 17.3855L92.4657 16.0018L91.5499 17.4343C91.4354 17.6134 91.3864 17.7111 91.3864 17.7599C91.4027 17.8739 91.4518 17.9227 91.5662 17.939Z" fill="black"/>
<path d="M97.8144 12.4685V12.3057H100.022V12.4685C99.924 12.4685 99.8586 12.4847 99.7932 12.5173C99.7278 12.5499 99.7114 12.5987 99.7114 12.6313C99.7114 12.6475 99.7441 12.7452 99.8259 12.9568L101.707 17.5151C101.821 17.7918 101.935 17.9384 102.034 17.9546V18.1174H100.169V17.9546C100.349 17.9221 100.431 17.8732 100.431 17.7593C100.431 17.7104 100.398 17.6128 100.349 17.4663L98.8938 13.7871H98.861L97.4547 17.5314C97.3893 17.6942 97.3729 17.7918 97.3729 17.8244C97.3729 17.8895 97.471 17.9384 97.6673 17.9709V18.1337H95.8848V17.9709C95.9502 17.9546 96.0156 17.9221 96.0646 17.857C96.1137 17.8081 96.1464 17.7593 96.1628 17.7104C96.1791 17.6779 96.2118 17.5965 96.2445 17.4988L98.0434 12.8917C98.0761 12.794 98.1088 12.7127 98.1088 12.6313C98.1088 12.5173 98.0107 12.4685 97.8144 12.4685Z" fill="black"/>
<path d="M107.723 16.4244C107.723 17.5639 107.004 18.1337 105.565 18.1337H103.062V17.9546C103.226 17.9546 103.308 17.8407 103.308 17.6128V12.8592C103.308 12.6313 103.242 12.5173 103.095 12.5173V12.3219H104.731V12.5173C104.567 12.5173 104.485 12.6313 104.485 12.8592V14.6336H105.581C106.3 14.6336 106.856 14.7964 107.2 15.122C107.543 15.4476 107.723 15.8709 107.723 16.4244ZM106.611 16.3755C106.611 16.0662 106.513 15.8546 106.333 15.7244C106.153 15.5941 105.826 15.529 105.385 15.529H104.469V17.2058H105.385C105.843 17.2058 106.153 17.1407 106.333 17.0104C106.513 16.8802 106.611 16.6686 106.611 16.3755ZM108.394 17.5965V12.8429C108.394 12.7289 108.377 12.6475 108.328 12.5824C108.279 12.5173 108.23 12.4847 108.181 12.4847V12.3057H109.784V12.4847C109.718 12.4847 109.669 12.5173 109.636 12.5824C109.587 12.6475 109.571 12.7289 109.571 12.8429V17.5965C109.571 17.8244 109.653 17.9384 109.816 17.9384V18.1337H108.23V17.9384C108.263 17.9384 108.312 17.9058 108.345 17.857C108.377 17.7918 108.394 17.7104 108.394 17.5965Z" fill="black"/>
</svg>
