<svg width="30" height="30" viewBox="0 0 30 30" fill="none" xmlns="http://www.w3.org/2000/svg">
<circle cx="15" cy="15" r="15" fill="#FAC300"/>
<path d="M10.3337 19.6668C10.0128 19.6668 9.73827 19.5527 9.50999 19.3244C9.28133 19.0957 9.16699 18.821 9.16699 18.5002V11.5002C9.16699 11.1793 9.28133 10.9048 9.50999 10.6765C9.73827 10.4478 10.0128 10.3335 10.3337 10.3335H19.667C19.9878 10.3335 20.2626 10.4478 20.4912 10.6765C20.7195 10.9048 20.8337 11.1793 20.8337 11.5002V18.5002C20.8337 18.821 20.7195 19.0957 20.4912 19.3244C20.2626 19.5527 19.9878 19.6668 19.667 19.6668H10.3337ZM15.0003 15.5835L19.667 12.6668V11.5002L15.0003 14.4168L10.3337 11.5002V12.6668L15.0003 15.5835Z" fill="#1E1E1E"/>
</svg>
