<svg width="30" height="30" viewBox="0 0 30 30" fill="none" xmlns="http://www.w3.org/2000/svg">
<circle cx="15" cy="15" r="15" fill="#FAC300"/>
<g clip-path="url(#clip0_985_860)">
<path d="M22 19.0568C22 19.2358 21.9669 19.4695 21.9006 19.7578C21.8343 20.0462 21.7647 20.2732 21.6918 20.4389C21.5526 20.7704 21.1482 21.1217 20.4787 21.4929C19.8556 21.831 19.2391 22 18.6293 22C18.4503 22 18.2746 21.9884 18.1023 21.9652C17.9299 21.942 17.7393 21.9006 17.5305 21.8409C17.3217 21.7812 17.166 21.7332 17.0632 21.6967C16.9605 21.6603 16.7765 21.5923 16.5114 21.4929C16.2462 21.3935 16.0838 21.3338 16.0241 21.3139C15.3745 21.0819 14.7945 20.8068 14.2841 20.4886C13.4422 19.965 12.5672 19.2491 11.6591 18.3409C10.7509 17.4328 10.035 16.5578 9.51136 15.7159C9.19318 15.2055 8.91809 14.6255 8.68608 13.9759C8.66619 13.9162 8.60653 13.7538 8.5071 13.4886C8.40767 13.2235 8.33973 13.0395 8.30327 12.9368C8.26681 12.834 8.21875 12.6783 8.15909 12.4695C8.09943 12.2607 8.058 12.0701 8.0348 11.8977C8.0116 11.7254 8 11.5497 8 11.3707C8 10.7609 8.16903 10.1444 8.5071 9.52131C8.87831 8.8518 9.22964 8.44744 9.56108 8.30824C9.7268 8.23532 9.95384 8.16572 10.2422 8.09943C10.5305 8.03314 10.7642 8 10.9432 8C11.036 8 11.1056 8.00994 11.152 8.02983C11.2713 8.0696 11.447 8.3215 11.679 8.78551C11.7519 8.91146 11.8513 9.09044 11.9773 9.32244C12.1032 9.55445 12.2192 9.76491 12.3253 9.95384C12.4313 10.1428 12.5341 10.3201 12.6335 10.4858C12.6534 10.5123 12.7114 10.5952 12.8075 10.7344C12.9036 10.8736 12.9749 10.9912 13.0213 11.0874C13.0677 11.1835 13.0909 11.2779 13.0909 11.3707C13.0909 11.5033 12.9964 11.669 12.8075 11.8679C12.6186 12.0668 12.4131 12.2491 12.1911 12.4148C11.969 12.5805 11.7635 12.7562 11.5746 12.9418C11.3857 13.1274 11.2912 13.2798 11.2912 13.3991C11.2912 13.4588 11.3078 13.5334 11.3409 13.6229C11.3741 13.7124 11.4022 13.7803 11.4254 13.8267C11.4486 13.8731 11.495 13.9527 11.5646 14.0653C11.6342 14.178 11.6723 14.241 11.679 14.2543C12.1828 15.1624 12.7595 15.9413 13.4091 16.5909C14.0587 17.2405 14.8376 17.8172 15.7457 18.321C15.759 18.3277 15.822 18.3658 15.9347 18.4354C16.0473 18.505 16.1269 18.5514 16.1733 18.5746C16.2197 18.5978 16.2876 18.6259 16.3771 18.6591C16.4666 18.6922 16.5412 18.7088 16.6009 18.7088C16.7202 18.7088 16.8726 18.6143 17.0582 18.4254C17.2438 18.2365 17.4195 18.031 17.5852 17.8089C17.7509 17.5869 17.9332 17.3814 18.1321 17.1925C18.331 17.0036 18.4967 16.9091 18.6293 16.9091C18.7221 16.9091 18.8165 16.9323 18.9126 16.9787C19.0088 17.0251 19.1264 17.0964 19.2656 17.1925C19.4048 17.2886 19.4877 17.3466 19.5142 17.3665C19.6799 17.4659 19.8572 17.5687 20.0462 17.6747C20.2351 17.7808 20.4455 17.8968 20.6776 18.0227C20.9096 18.1487 21.0885 18.2481 21.2145 18.321C21.6785 18.553 21.9304 18.7287 21.9702 18.848C21.9901 18.8944 22 18.964 22 19.0568Z" fill="#1E1E1E"/>
</g>
<defs>
<clipPath id="clip0_985_860">
<rect width="14" height="14" fill="white" transform="translate(8 8)"/>
</clipPath>
</defs>
</svg>
