<svg width="70" height="70" viewBox="0 0 70 70" fill="none" xmlns="http://www.w3.org/2000/svg">
<rect width="70" height="70" rx="10" fill="#FAC300"/>
<path d="M48.5 23C48.8438 23 49.1667 23.0625 49.4688 23.1875C49.7708 23.3125 50.0365 23.4948 50.2656 23.7344C50.4948 23.974 50.6719 24.2396 50.7969 24.5312C50.9219 24.8229 50.9896 25.1458 51 25.5V42.5C51 42.8438 50.9375 43.1667 50.8125 43.4688C50.6875 43.7708 50.5052 44.0365 50.2656 44.2656C50.026 44.4948 49.7604 44.6719 49.4688 44.7969C49.1771 44.9219 48.8542 44.9896 48.5 45H21.5C21.1562 45 20.8333 44.9375 20.5312 44.8125C20.2292 44.6875 19.9635 44.5052 19.7344 44.2656C19.5052 44.026 19.3281 43.7604 19.2031 43.4688C19.0781 43.1771 19.0104 42.8542 19 42.5V25.5C19 25.1562 19.0625 24.8333 19.1875 24.5312C19.3125 24.2292 19.4948 23.9635 19.7344 23.7344C19.974 23.5052 20.2396 23.3281 20.5312 23.2031C20.8229 23.0781 21.1458 23.0104 21.5 23H48.5ZM22.5 26C22.3542 26 22.2344 26.0469 22.1406 26.1406C22.0469 26.2344 22 26.3542 22 26.5V29H48V26.5C48 26.3542 47.9531 26.2344 47.8594 26.1406C47.7656 26.0469 47.6458 26 47.5 26H22.5ZM47.5 42C47.6458 42 47.7656 41.9531 47.8594 41.8594C47.9531 41.7656 48 41.6458 48 41.5V32H22V41.5C22 41.6458 22.0469 41.7656 22.1406 41.8594C22.2344 41.9531 22.3542 42 22.5 42H47.5ZM41 36H45V39H41V36Z" fill="white"/>
</svg>
