<svg width="70" height="70" viewBox="0 0 70 70" fill="none" xmlns="http://www.w3.org/2000/svg">
<rect width="70" height="70" rx="10" fill="#FAC300"/>
<path d="M42.2826 48.4488C41.9466 48.4488 41.6181 48.3738 41.3136 48.2298L41.1576 48.1533L34.9972 44.6388L28.8366 48.1548L28.6776 48.2343C28.3121 48.4025 27.9087 48.4712 27.5081 48.4336C27.1075 48.3959 26.7239 48.2532 26.3961 48.0198C26.0492 47.7655 25.7821 47.4173 25.6264 47.0163C25.4707 46.6153 25.4328 46.1781 25.5171 45.7563L26.9526 38.7933L24.5496 36.6078L21.7071 34.0203L21.5901 33.8973C21.3125 33.6041 21.1187 33.2417 21.029 32.848C20.9393 32.4544 20.957 32.0438 21.0801 31.6593C21.3396 30.8733 22.0101 30.2913 22.8201 30.1458L22.9731 30.1188L30.0246 29.3373L32.9436 22.8723L33.0337 22.7073C33.2283 22.3572 33.513 22.0654 33.8582 21.8621C34.2033 21.6588 34.5965 21.5513 34.9972 21.5508C35.8117 21.5508 36.5632 21.9978 36.9607 22.7058L37.0506 22.8738L39.9726 29.3418L47.0241 30.1233L47.1802 30.1488C47.9886 30.2988 48.6591 30.8778 48.9171 31.6668C49.1721 32.4483 48.9696 33.3138 48.4071 33.9078L48.2901 34.0248L43.0431 38.8008L44.4787 45.7488C44.5637 46.1734 44.5256 46.6135 44.3688 47.0173C44.212 47.421 43.9431 47.7714 43.5937 48.0273C43.212 48.3024 42.7532 48.45 42.2826 48.4488ZM30.0591 38.6028C30.0006 38.8758 29.3601 41.9718 28.7916 44.7258L34.2561 41.6103C34.4824 41.4814 34.7383 41.4136 34.9986 41.4136C35.259 41.4136 35.5149 41.4814 35.7412 41.6103L41.2056 44.7228L39.9322 38.5668C39.8794 38.3114 39.8943 38.0467 39.9754 37.7989C40.0564 37.551 40.2008 37.3287 40.3941 37.1538L45.0441 32.9208L38.7922 32.2293C38.533 32.2003 38.2859 32.1043 38.0752 31.9506C37.8645 31.797 37.6975 31.5911 37.5907 31.3533L34.9986 25.6218L32.4096 31.3533C32.1906 31.8363 31.7346 32.1678 31.2081 32.2293L24.9561 32.9208L29.6061 37.1538C29.8044 37.3327 29.951 37.5615 30.0306 37.8164C30.1103 38.0712 30.1202 38.3428 30.0591 38.6028V38.6028Z" fill="#1E1E1E"/>
</svg>
