<svg width="50" height="50" viewBox="0 0 50 50" fill="none" xmlns="http://www.w3.org/2000/svg">
<rect width="50" height="50" rx="10" fill="#2D71D7"/>
<path d="M34.4403 13.7464C34.1393 13.7683 33.8439 13.8389 33.5656 13.9554H33.5618C33.2947 14.0614 32.0243 14.5958 30.0931 15.4058L23.1725 18.3204C18.2065 20.4111 13.325 22.4698 13.325 22.4698L13.3831 22.4473C13.3831 22.4473 13.0465 22.5579 12.695 22.7989C12.4778 22.9371 12.2909 23.1179 12.1456 23.3304C11.9731 23.5836 11.8343 23.9708 11.8859 24.3711C11.9703 25.0479 12.409 25.4539 12.724 25.6779C13.0428 25.9048 13.3465 26.0108 13.3465 26.0108H13.354L17.9318 27.5529C18.1372 28.212 19.3268 32.1233 19.6128 33.0242C19.7815 33.5623 19.9456 33.8989 20.1509 34.1558C20.2503 34.287 20.3665 34.3967 20.5062 34.4848C20.5788 34.5271 20.6563 34.5604 20.7368 34.5842L20.69 34.5729C20.704 34.5767 20.7153 34.5879 20.7256 34.5917C20.7631 34.602 20.7884 34.6058 20.8362 34.6133C21.5609 34.8326 22.1431 34.3826 22.1431 34.3826L22.1759 34.3564L24.8787 31.8954L29.4087 35.3708L29.5118 35.4148C30.4559 35.8292 31.4122 35.5986 31.9175 35.1917C32.4265 34.782 32.6243 34.2579 32.6243 34.2579L32.6572 34.1736L36.1578 16.2401C36.2572 15.7976 36.2825 15.3833 36.1728 14.9811C36.0596 14.574 35.7985 14.224 35.4406 13.9995C35.14 13.8168 34.7915 13.7286 34.4403 13.7464V13.7464ZM34.3456 15.6683C34.3418 15.7273 34.3531 15.7208 34.3268 15.8342V15.8445L30.859 33.5914C30.844 33.6167 30.8187 33.672 30.7493 33.7273C30.6762 33.7854 30.6181 33.822 30.3134 33.7011L24.7728 29.4533L21.4259 32.5039L22.129 28.0133L31.1815 19.5758C31.5547 19.2289 31.43 19.1558 31.43 19.1558C31.4562 18.7301 30.8665 19.0311 30.8665 19.0311L19.4515 26.1026L19.4478 26.0839L13.9765 24.2417V24.2379L13.9625 24.2351C13.9721 24.2319 13.9814 24.2282 13.9906 24.2239L14.0206 24.2089L14.0497 24.1986C14.0497 24.1986 18.935 22.1398 23.9009 20.0492C26.3872 19.002 28.8922 17.9473 30.8187 17.1336C31.9613 16.6526 33.105 16.1745 34.25 15.6992C34.3268 15.6692 34.2903 15.6692 34.3456 15.6692V15.6683Z" fill="white"/>
</svg>
